<?xml version="1.0" encoding="UTF-8"?>
<svg width="28px" height="30px" viewBox="0 0 28 30" version="1.1" xmlns="http://www.w3.org/2000/svg" xmlns:xlink="http://www.w3.org/1999/xlink">
    <!-- Generator: Sketch 42 (36781) - http://www.bohemiancoding.com/sketch -->
    <title>yabit-icon</title>
    <desc>Created with Sketch.</desc>
    <defs></defs>
    <g id="Page-1" stroke="none" stroke-width="1" fill="none" fill-rule="evenodd">
        <g id="yabit-icon" fill-rule="nonzero" fill="#3BADFE">
            <g id="Group">
                <polygon id="Shape" points="19.2347041 0.0861206897 13.8954142 10.2625862 8.43789941 0.0861206897 0.0609763314 0.0861206897 9.94633136 17.2373276 9.93940828 17.2497414 2.95828402 29.88 11.0958284 29.88 27.4915385 0.0861206897"></polygon>
                <path d="M26.5081953,24.125431 C27.1890533,24.7872414 27.5309467,25.580431 27.5309467,26.5065517 C27.5309467,27.4331897 27.1890533,28.2261207 26.5081953,28.8876724 C25.8268047,29.5497414 25.0096154,29.88 24.0560947,29.88 C23.1028402,29.88 22.2859172,29.5497414 21.6050592,28.8876724 C20.9231361,28.2261207 20.5833728,27.4331897 20.5833728,26.5065517 C20.5833728,25.580431 20.9231361,24.7872414 21.6050592,24.125431 C22.2859172,23.4628448 23.1028402,23.1331034 24.0560947,23.1331034 C25.0096154,23.1331034 25.8268047,23.4631034 26.5081953,24.125431 Z" id="Shape"></path>
            </g>
        </g>
    </g>
</svg>