<?xml version="1.0" encoding="UTF-8"?>
<svg width="82px" height="30px" viewBox="0 0 82 30" version="1.1" xmlns="http://www.w3.org/2000/svg" xmlns:xlink="http://www.w3.org/1999/xlink">
    <!-- Generator: Sketch 42 (36781) - http://www.bohemiancoding.com/sketch -->
    <title>yabit-logo copy 2</title>
    <desc>Created with Sketch.</desc>
    <defs></defs>
    <g id="Page-1" stroke="none" stroke-width="1" fill="none" fill-rule="evenodd">
        <g id="yabit-logo-copy-2" fill-rule="nonzero" fill="#FFFFFF">
            <g id="Group">
                <path d="M36.3989785,22.7135644 L31.2625128,22.7135644 L31.2625128,21.1541584 L31.2058223,21.1541584 C30.7740552,21.809703 30.1621042,22.3125743 29.3715015,22.659505 C28.5815117,23.0046535 27.7351379,23.1781188 26.8320735,23.1781188 C25.7975485,23.1781188 24.8273749,22.9814851 23.926762,22.590297 C23.0243105,22.2 22.2425945,21.6510891 21.5852911,20.9492079 C20.9249234,20.2467327 20.4174668,19.4444554 20.0623085,18.5426733 C19.7040858,17.6405941 19.5263534,16.6868317 19.5263534,15.6825743 C19.5263534,14.6818812 19.6976507,13.7281188 20.0460674,12.8257426 C20.3944842,11.9242574 20.8979571,11.1264356 21.5546476,10.4331683 C22.2122574,9.73930693 22.9856997,9.19841584 23.8700715,8.80574257 C24.7538304,8.41425743 25.7227783,8.21792079 26.7769152,8.21792079 C27.6413687,8.21792079 28.4733401,8.37267327 29.272523,8.68188119 C30.0729316,8.99257426 30.7363636,9.44940594 31.2625128,10.0508911 L31.2625128,8.68188119 L36.3989785,8.68188119 L36.3989785,22.7135644 Z M25.7163432,13.4569307 C25.1236977,14.0667327 24.8276813,14.8194059 24.8276813,15.7110891 C24.8276813,16.6223762 25.1240041,17.3759406 25.7163432,17.9679208 C26.3117467,18.5619802 27.1139939,18.8566337 28.1307457,18.8566337 C29.1474974,18.8566337 29.9512768,18.5619802 30.5414709,17.9679208 C31.1341164,17.3762376 31.4313585,16.6226733 31.4313585,15.7110891 C31.4313585,14.8194059 31.13381,14.0664356 30.5414709,13.4569307 C29.9512768,12.8444554 29.1474974,12.54 28.1307457,12.54 C27.1139939,12.54 26.3117467,12.8447525 25.7163432,13.4569307 Z" id="Shape"></path>
                <path d="M39.3603677,0.0127722772 L44.4949949,0.0127722772 L44.4949949,10.0514851 C45.021144,9.45029703 45.6848825,8.99346535 46.4843718,8.68247525 C47.2826353,8.3729703 48.1146067,8.21851485 48.9799796,8.21851485 C50.0341164,8.21851485 51.0061287,8.41485149 51.9012257,8.80633663 C52.7944842,9.1990099 53.5660878,9.73990099 54.2157303,10.4337624 C54.8629213,11.1270297 55.3639428,11.9251485 55.7108274,12.8263366 C56.0589377,13.7287129 56.2326864,14.6824752 56.2326864,15.6831683 C56.2326864,16.6874257 56.0531154,17.6447525 55.6951992,18.5554455 C55.339428,19.470297 54.8347293,20.2707921 54.1850868,20.9634653 C53.5391216,21.6573267 52.7613892,22.200297 51.8580184,22.5908911 C50.9570991,22.9817822 49.9768131,23.1787129 48.9242084,23.1787129 C48.0392237,23.1787129 47.2032686,23.0088119 46.4141982,22.6722772 C45.6245148,22.3345545 45.0030644,21.8293069 44.5507661,21.1547525 L44.4949949,21.1547525 L44.4949949,22.7141584 L39.3603677,22.7141584 L39.3603677,0.0127722772 Z M45.2151175,13.4569307 C44.6212462,14.0667327 44.326762,14.8194059 44.326762,15.7110891 C44.326762,16.6223762 44.6212462,17.3759406 45.2151175,17.9679208 C45.807763,18.5619802 46.6109295,18.8566337 47.6273749,18.8566337 C48.6413687,18.8566337 49.447906,18.5619802 50.0390194,17.9679208 C50.631665,17.3762376 50.9273749,16.6226733 50.9273749,15.7110891 C50.9273749,14.8194059 50.6313585,14.0664356 50.0390194,13.4569307 C49.447906,12.8444554 48.6410623,12.54 47.6273749,12.54 C46.6106231,12.54 45.8074566,12.8447525 45.2151175,13.4569307 Z" id="Shape"></path>
                <path d="M63.0879469,1.32772277 C63.6508682,1.87247525 63.9355465,2.52980198 63.9355465,3.29465347 C63.9355465,4.06158416 63.6508682,4.71742574 63.0879469,5.26455446 C62.5244127,5.81257426 61.847191,6.08554455 61.0559755,6.08554455 C60.2662921,6.08554455 59.5884576,5.81287129 59.0261491,5.26455446 C58.4589377,4.71742574 58.1779367,4.06158416 58.1779367,3.29465347 C58.1779367,2.53009901 58.4589377,1.87247525 59.0261491,1.32772277 C59.5884576,0.779405941 60.2662921,0.506732673 61.0559755,0.506732673 C61.847191,0.507029703 62.5244127,0.77970297 63.0879469,1.32772277 Z" id="Shape"></path>
                <path d="M80.8838611,17.9946535 C81.4467824,18.5394059 81.7314607,19.1973267 81.7314607,19.9612871 C81.7314607,20.7282178 81.4467824,21.3849505 80.8838611,21.9314851 C80.3200204,22.479802 79.6431052,22.7524752 78.8518897,22.7524752 C78.0622063,22.7524752 77.3843718,22.479802 76.8220633,21.9314851 C76.2548519,21.3849505 75.9735444,20.7282178 75.9735444,19.9612871 C75.9735444,19.1973267 76.2548519,18.5394059 76.8220633,17.9946535 C77.3843718,17.4463366 78.0622063,17.1736634 78.8518897,17.1736634 C79.6431052,17.1736634 80.3200204,17.4463366 80.8838611,17.9946535 Z" id="Shape"></path>
                <rect id="Rectangle-path" x="58.4886619" y="8.68247525" width="5.13554648" height="14.0310891"></rect>
                <polygon id="Shape" points="72.342288 22.7135644 67.2073544 22.7135644 67.2073544 12.7859406 65.541573 12.7859406 65.541573 8.68247525 67.2073544 8.68247525 67.2073544 4.47326733 72.342288 4.47326733 72.342288 8.68247525 75.2482125 8.68247525 75.2482125 12.7859406 72.342288 12.7859406"></polygon>
                <polygon id="Shape" points="13.8539326 8.68247525 10.0786517 15.8673267 6.21879469 8.68247525 0.293564862 8.68247525 7.28426966 20.789703 7.28120531 20.7983168 2.34177732 29.7145545 8.09754852 29.7145545 19.6945863 8.68247525"></polygon>
            </g>
        </g>
    </g>
</svg>