<?xml version="1.0" encoding="UTF-8"?>
<svg width="22px" height="22px" viewBox="0 0 22 22" version="1.1" xmlns="http://www.w3.org/2000/svg" xmlns:xlink="http://www.w3.org/1999/xlink">
    <!-- Generator: Sketch 42 (36781) - http://www.bohemiancoding.com/sketch -->
    <title>ic_time</title>
    <desc>Created with Sketch.</desc>
    <defs></defs>
    <g id="Icons" stroke="none" stroke-width="1" fill="none" fill-rule="evenodd" stroke-linecap="round" stroke-linejoin="round">
        <g id="24-px-Icons" transform="translate(-121.000000, -409.000000)" stroke="#000000">
            <g id="ic_time" transform="translate(120.000000, 408.000000)">
                <g id="ic_hourglass">
                    <g id="Group" transform="translate(2.000000, 1.000000)" stroke-width="2">
                        <path d="M0,1 L20,1" id="Line"></path>
                        <path d="M0,21 L20,21" id="Line-Copy" transform="translate(10.000000, 21.000000) scale(1, -1) translate(-10.000000, -21.000000) "></path>
                        <path d="M2,1 C2,5.418278 5.581722,9 10,9 L10,9 C14.418278,9 18,5.418278 18,1" id="Oval"></path>
                        <path d="M2,13 C2,17.418278 5.581722,21 10,21 L10,21 C14.418278,21 18,17.418278 18,13" id="Oval-Copy" transform="translate(10.000000, 17.000000) scale(1, -1) translate(-10.000000, -17.000000) "></path>
                    </g>
                </g>
            </g>
        </g>
    </g>
</svg>