<?xml version="1.0" encoding="UTF-8"?>
<svg width="20px" height="22px" viewBox="0 0 20 22" version="1.1" xmlns="http://www.w3.org/2000/svg" xmlns:xlink="http://www.w3.org/1999/xlink">
    <!-- Generator: Sketch 42 (36781) - http://www.bohemiancoding.com/sketch -->
    <title>ic_vendor</title>
    <desc>Created with Sketch.</desc>
    <defs></defs>
    <g id="Icons" stroke="none" stroke-width="1" fill="none" fill-rule="evenodd" stroke-linecap="round" stroke-linejoin="round">
        <g id="24-px-Icons" transform="translate(-410.000000, -457.000000)" stroke="#000000">
            <g id="ic_vendor" transform="translate(408.000000, 456.000000)">
                <g id="Group">
                    <g transform="translate(3.000000, 2.000000)" stroke-width="2">
                        <rect id="Rectangle-4" x="1" y="12" width="16" height="5"></rect>
                        <path d="M3,5 L3,12" id="Line"></path>
                        <path d="M15,5 L15,12" id="Line-Copy"></path>
                        <path d="M0,4 C0,4.55228475 0.44771525,5 1,5 L1,5 C1.55228475,5 2,4.55228475 2,4" id="Oval"></path>
                        <path d="M6,4 C6,4.55228475 6.44771525,5 7,5 L7,5 C7.55228475,5 8,4.55228475 8,4" id="Oval-Copy-3"></path>
                        <path d="M12,4 C12,4.55228475 12.4477153,5 13,5 L13,5 C13.5522847,5 14,4.55228475 14,4" id="Oval-Copy-6"></path>
                        <path d="M2,4 C2,4.55228475 2.44771525,5 3,5 L3,5 C3.55228475,5 4,4.55228475 4,4" id="Oval-Copy"></path>
                        <path d="M8,4 C8,4.55228475 8.44771525,5 9,5 L9,5 C9.55228475,5 10,4.55228475 10,4" id="Oval-Copy-4"></path>
                        <path d="M14,4 C14,4.55228475 14.4477153,5 15,5 L15,5 C15.5522847,5 16,4.55228475 16,4" id="Oval-Copy-7"></path>
                        <path d="M4,4 C4,4.55228475 4.44771525,5 5,5 L5,5 C5.55228475,5 6,4.55228475 6,4" id="Oval-Copy-2"></path>
                        <path d="M10,4 C10,4.55228475 10.4477153,5 11,5 L11,5 C11.5522847,5 12,4.55228475 12,4" id="Oval-Copy-5"></path>
                        <path d="M16,4 C16,4.55228475 16.4477153,5 17,5 L17,5 C17.5522847,5 18,4.55228475 18,4" id="Oval-Copy-8"></path>
                        <polyline id="Path-5" points="0 4 1 0 17 0 18 4"></polyline>
                        <path d="M3,18 C3,19.1045695 3.8954305,20 5,20 L5,20 C6.1045695,20 7,19.1045695 7,18" id="Oval-2"></path>
                        <path d="M11,18 C11,19.1045695 11.8954305,20 13,20 L13,20 C14.1045695,20 15,19.1045695 15,18" id="Oval-2-Copy"></path>
                    </g>
                </g>
            </g>
        </g>
    </g>
</svg>